<svg xmlns="http://www.w3.org/2000/svg" width="35" height="40" viewBox="0 0 35 40" fill="none">
<path d="M7.09767 9.2604H27.9721V16.2636L17.5349 12.7974L7.09767 16.2636M3.51423 32.2507H3.6186C6.40186 32.2507 8.83721 30.6945 10.5767 28.7138C12.3163 30.6945 14.7516 32.2507 17.5349 32.2507C20.3181 32.2507 22.7535 30.6945 24.493 28.7138C26.2326 30.6945 28.6679 32.2507 31.4512 32.2507H31.5381L34.8433 20.4195C34.9824 19.9774 34.9302 19.4823 34.7389 19.0578C34.5127 18.6334 34.1474 18.3151 33.6952 18.1736L31.4512 17.4308V9.2604C31.4512 7.29738 29.8856 5.72343 27.9721 5.72343H22.7535V0.417969H12.3163V5.72343H7.09767C6.17497 5.72343 5.29005 6.09607 4.6376 6.75938C3.98515 7.42269 3.6186 8.32234 3.6186 9.2604V17.4308L1.3746 18.1736C0.922325 18.3151 0.557022 18.6334 0.330883 19.0578C0.139534 19.4823 0.0873479 19.9774 0.226511 20.4195M31.4512 35.7877C29.0332 35.7877 26.6153 34.9565 24.493 33.4356C20.2486 36.4597 14.8212 36.4597 10.5767 33.4356C8.45451 34.9565 6.03656 35.7877 3.6186 35.7877H0.139534V39.3247H3.6186C6.00177 39.3247 8.38493 38.7057 10.5767 37.5562C14.9256 39.8552 20.1442 39.8552 24.493 37.5562C26.6848 38.7057 29.0506 39.3247 31.4512 39.3247H34.9302V35.7877H31.4512Z" fill="black"/>
</svg>