<svg xmlns="http://www.w3.org/2000/svg" width="35" height="35" viewBox="0 0 35 35" fill="none">
<path d="M24.5317 20.8956C24.6683 19.7534 24.7708 18.6112 24.7708 17.4344C24.7708 16.2576 24.6683 15.1154 24.5317 13.9732H30.3058C30.5792 15.0808 30.75 16.2403 30.75 17.4344C30.75 18.6285 30.5792 19.788 30.3058 20.8956M21.5079 30.5177C22.5329 28.5967 23.3188 26.52 23.8654 24.3567H28.905C27.265 27.2122 24.6513 29.4274 21.5079 30.5177ZM21.0808 20.8956H13.0858C12.915 19.7534 12.8125 18.6112 12.8125 17.4344C12.8125 16.2576 12.915 15.0981 13.0858 13.9732H21.0808C21.2346 15.0981 21.3542 16.2576 21.3542 17.4344C21.3542 18.6112 21.2346 19.7534 21.0808 20.8956ZM17.0833 31.2099C15.6654 29.1332 14.5208 26.8315 13.8204 24.3567H20.3463C19.6458 26.8315 18.5013 29.1332 17.0833 31.2099ZM10.25 10.512H5.26167C6.88458 7.6392 9.51542 5.42404 12.6417 4.35107C11.6167 6.27203 10.8479 8.34874 10.25 10.512ZM5.26167 24.3567H10.25C10.8479 26.52 11.6167 28.5967 12.6417 30.5177C9.51542 29.4274 6.88458 27.2122 5.26167 24.3567ZM3.86083 20.8956C3.5875 19.788 3.41667 18.6285 3.41667 17.4344C3.41667 16.2403 3.5875 15.0808 3.86083 13.9732H9.635C9.49833 15.1154 9.39583 16.2576 9.39583 17.4344C9.39583 18.6112 9.49833 19.7534 9.635 20.8956M17.0833 3.64153C18.5013 5.71824 19.6458 8.03724 20.3463 10.512H13.8204C14.5208 8.03724 15.6654 5.71824 17.0833 3.64153ZM28.905 10.512H23.8654C23.3188 8.34874 22.5329 6.27203 21.5079 4.35107C24.6513 5.44134 27.265 7.6392 28.905 10.512ZM17.0833 0.128418C7.63625 0.128418 0 7.9161 0 17.4344C0 22.0242 1.79985 26.426 5.00359 29.6715C6.58993 31.2785 8.47318 32.5533 10.5458 33.423C12.6185 34.2927 14.8399 34.7403 17.0833 34.7403C21.6141 34.7403 25.9593 32.917 29.1631 29.6715C32.3668 26.426 34.1667 22.0242 34.1667 17.4344C34.1667 15.1617 33.7248 12.9113 32.8663 10.8117C32.0078 8.71201 30.7494 6.80422 29.1631 5.19721C27.5767 3.59021 25.6935 2.31546 23.6208 1.44576C21.5482 0.57605 19.3267 0.128418 17.0833 0.128418Z" fill="black"/>
</svg>