<svg xmlns="http://www.w3.org/2000/svg" width="38" height="39" viewBox="0 0 38 39" fill="none">
<path d="M17.0169 7.31327L22.9663 7.31327L29.4908 0.771889C29.6751 0.586097 29.8945 0.43863 30.1361 0.337994C30.3778 0.237359 30.637 0.185547 30.8988 0.185547C31.1606 0.185547 31.4198 0.237359 31.6615 0.337994C31.9031 0.43863 32.1225 0.586097 32.3068 0.771889L37.4233 5.90588C37.7927 6.27728 38 6.77968 38 7.30336C38 7.82704 37.7927 8.32944 37.4233 8.70084L32.8819 13.26L17.0169 13.26L17.0169 17.2245C17.0169 17.7502 16.8079 18.2544 16.436 18.6261C16.0641 18.9978 15.5597 19.2067 15.0337 19.2067C14.5078 19.2067 14.0034 18.9978 13.6314 18.6261C13.2595 18.2544 13.0506 17.7502 13.0506 17.2245L13.0506 11.2777C13.0506 10.2263 13.4685 9.21792 14.2123 8.47444C14.9561 7.73095 15.965 7.31327 17.0169 7.31327ZM5.11807 17.2245L5.11807 25.1534L0.576689 29.6927C0.207328 30.0641 7.7507e-06 30.5665 7.75279e-06 31.0902C7.75488e-06 31.6139 0.207328 32.1163 0.576689 32.4877L5.69317 37.6217C5.87753 37.8075 6.09687 37.9549 6.33853 38.0556C6.5802 38.1562 6.8394 38.208 7.1012 38.208C7.363 38.208 7.6222 38.1562 7.86387 38.0556C8.10553 37.9549 8.32487 37.8075 8.50923 37.6217L17.0169 29.1179L24.9494 29.1179C25.4754 29.1179 25.9798 28.909 26.3517 28.5373C26.7236 28.1655 26.9325 27.6614 26.9325 27.1356L26.9325 25.1534L28.9157 25.1534C29.4416 25.1534 29.9461 24.9446 30.318 24.5728C30.6899 24.2011 30.8988 23.6969 30.8988 23.1712L30.8988 21.1889L32.8819 21.1889C33.4079 21.1889 33.9123 20.9801 34.2842 20.6083C34.6561 20.2366 34.8651 19.7324 34.8651 19.2067L34.8651 17.2245L20.9831 17.2245L20.9831 19.2067C20.9831 20.2581 20.5653 21.2665 19.8214 22.01C19.0776 22.7535 18.0688 23.1712 17.0169 23.1712L13.0506 23.1712C11.9987 23.1712 10.9898 22.7535 10.246 22.01C9.50221 21.2665 9.08433 20.2581 9.08433 19.2067L9.08433 13.26L5.11807 17.2245Z" fill="black"/>
</svg>