<svg xmlns="http://www.w3.org/2000/svg" width="45" height="28" viewBox="0 0 45 28" fill="none">
<path d="M22.5 0.878418C24.2405 0.878418 25.9097 1.56546 27.1404 2.7884C28.3711 4.01134 29.0625 5.67001 29.0625 7.39951C29.0625 9.12901 28.3711 10.7877 27.1404 12.0106C25.9097 13.2336 24.2405 13.9206 22.5 13.9206C20.7595 13.9206 19.0903 13.2336 17.8596 12.0106C16.6289 10.7877 15.9375 9.12901 15.9375 7.39951C15.9375 5.67001 16.6289 4.01134 17.8596 2.7884C19.0903 1.56546 20.7595 0.878418 22.5 0.878418ZM9.375 5.53634C10.425 5.53634 11.4 5.81581 12.2438 6.31887C11.9625 8.9832 12.75 11.6289 14.3625 13.697C13.425 15.4857 11.55 16.7154 9.375 16.7154C7.88316 16.7154 6.45242 16.1265 5.39752 15.0782C4.34263 14.03 3.75 12.6083 3.75 11.1258C3.75 9.64342 4.34263 8.2217 5.39752 7.17347C6.45242 6.12523 7.88316 5.53634 9.375 5.53634ZM35.625 5.53634C37.1168 5.53634 38.5476 6.12523 39.6025 7.17347C40.6574 8.2217 41.25 9.64342 41.25 11.1258C41.25 12.6083 40.6574 14.03 39.6025 15.0782C38.5476 16.1265 37.1168 16.7154 35.625 16.7154C33.45 16.7154 31.575 15.4857 30.6375 13.697C32.25 11.6289 33.0375 8.9832 32.7562 6.31887C33.6 5.81581 34.575 5.53634 35.625 5.53634ZM10.3125 24.6338C10.3125 20.7771 15.7688 17.6469 22.5 17.6469C29.2312 17.6469 34.6875 20.7771 34.6875 24.6338V27.8944H10.3125V24.6338ZM0 27.8944V25.0996C0 22.5098 3.54375 20.3299 8.34375 19.6964C7.2375 20.9634 6.5625 22.7148 6.5625 24.6338V27.8944H0ZM45 27.8944H38.4375V24.6338C38.4375 22.7148 37.7625 20.9634 36.6562 19.6964C41.4562 20.3299 45 22.5098 45 25.0996V27.8944Z" fill="black"/>
</svg>